<?xml version="1.0" encoding="UTF-8" standalone="no"?>
<svg width="100px" height="100px" viewBox="0 0 100 100" version="1.1" xmlns="http://www.w3.org/2000/svg" xmlns:xlink="http://www.w3.org/1999/xlink">
	<g stroke="none" stroke-width="1" fill="none" fill-rule="evenodd">
		<path d="M120,108 C120,114.6 114.6,120 108,120 L12,120 C5.4,120 0,114.6 0,108 L0,12 C0,5.4 5.4,0 12,0 L108,0 C114.6,0 120,5.4 120,12 L120,108 L120,108 Z" id="Shape" fill="#FDB665"/>
		<path fill="#fff" d="m42.6 71c-1.2 0-2.4-0.5-3.3-1.4l-18.7-18.7c-0.8-0.8-0.8-2 0-2.8l3.7-3.7c0.8-0.8 2-0.8 2.8 0l15.5 15.4 30.3-30.3c0.8-0.8 2-0.8 2.8 0l3.7 3.7c0.8 0.8 0.8 2 0 2.8l-33.6 33.6c-0.9 0.9-2 1.4-3.2 1.4z"></path>
	</g>
</svg>