<?xml version="1.0" encoding="UTF-8" standalone="no"?>
<svg width="100px" height="100px" viewBox="0 0 100 100" version="1.1" xmlns="http://www.w3.org/2000/svg" xmlns:xlink="http://www.w3.org/1999/xlink">
    <g stroke="none" stroke-width="1" fill="none" fill-rule="evenodd">
        <path d="M120,108 C120,114.6 114.6,120 108,120 L12,120 C5.4,120 0,114.6 0,108 L0,12 C0,5.4 5.4,0 12,0 L108,0 C114.6,0 120,5.4 120,12 L120,108 L120,108 Z" id="Shape" fill="#f26891"/>
        <path fill="#fff" d="m80 71.2v2.8c0 3.3-2.7 6-6 6h-48c-3.3 0-6-2.7-6-6v-2.8c0-7.3 8.5-11.7 16.5-15.2 0.3-0.1 0.5-0.2 0.8-0.4 0.6-0.3 1.3-0.3 1.9 0.1 3.2 2.1 6.9 3.3 10.8 3.3 3.9 0 7.6-1.2 10.8-3.2 0.6-0.4 1.3-0.4 1.9-0.1 0.3 0.1 0.5 0.2 0.8 0.4 8 3.4 16.5 7.8 16.5 15.1z"></path><ellipse fill="#fff" cx="50" cy="36.5" rx="14.9" ry="16.5"></ellipse>
    </g>
</svg>