<?xml version="1.0" encoding="UTF-8" standalone="no"?>
<svg width="100px" height="100px" viewBox="0 0 100 100" version="1.1" xmlns="http://www.w3.org/2000/svg" xmlns:xlink="http://www.w3.org/1999/xlink">
    <g stroke="none" stroke-width="1" fill="none" fill-rule="evenodd">
        <path d="M120,108 C120,114.6 114.6,120 108,120 L12,120 C5.4,120 0,114.6 0,108 L0,12 C0,5.4 5.4,0 12,0 L108,0 C114.6,0 120,5.4 120,12 L120,108 L120,108 Z" id="Shape" fill="#f26891"/>
        <g fill="#fff"><path d="m68.1 20h-36.2c-3.3 0-5.9 2.7-5.9 5.9v0.1c0 1.1 0.9 2 2 2h44c1.1 0 2-0.9 2-2v-0.1c0-3.2-2.7-5.9-5.9-5.9z m-0.1 14h-36c-1.1 0-2 0.9-2 2v42c0 1.1 0.9 2 2 2h11.1c1.1 0 1.9-0.9 1.9-2v-8c0-1.1 1-2 2.1-2h5.8c1.1 0 2.1 0.9 2.1 2v8c0 1.1 0.8 2 1.9 2h11.1c1.1 0 2-0.9 2-2v-42c0-1.1-0.9-2-2-2z m-21 27c0 1.1-0.9 2-2 2h-4c-1.1 0-2-0.9-2-2v-4c0-1.1 0.9-2 2-2h4c1.1 0 2 0.9 2 2v4z m0-14c0 1.1-0.9 2-2 2h-4c-1.1 0-2-0.9-2-2v-4c0-1.1 0.9-2 2-2h4c1.1 0 2 0.9 2 2v4z m14 14c0 1.1-0.9 2-2 2h-4c-1.1 0-2-0.9-2-2v-4c0-1.1 0.9-2 2-2h4c1.1 0 2 0.9 2 2v4z m0-14c0 1.1-0.9 2-2 2h-4c-1.1 0-2-0.9-2-2v-4c0-1.1 0.9-2 2-2h4c1.1 0 2 0.9 2 2v4z"></path></g>
    </g>
</svg>